<mxfile host="app.diagrams.net" modified="2023-07-11T07:51:11.804Z" agent="Mozilla/5.0 (X11; Ubuntu; Linux x86_64; rv:109.0) Gecko/20100101 Firefox/113.0" etag="eqBnXBbT_Dh_kvn5Uyom" version="21.3.5" pages="2">
  <diagram name="Encapsulation-visible" id="C_AchLhgHWku5-Wnpb0x">
    <mxGraphModel dx="1611" dy="901" grid="1" gridSize="10" guides="1" tooltips="1" connect="1" arrows="1" fold="1" page="1" pageScale="1" pageWidth="850" pageHeight="1100" math="0" shadow="0">
      <root>
        <mxCell id="0" />
        <mxCell id="1" parent="0" />
        <mxCell id="hzXZANXfbae09OoeqcxG-1" value="" style="shape=image;verticalLabelPosition=bottom;labelBackgroundColor=default;verticalAlign=top;aspect=fixed;imageAspect=0;image=https://img-eu-c1.autohero.com/img/3cea64aa5541b9a5a1871946a1b77e0811a2ab39bcb5dbe18b6c0ceb6bd0053b/interior/5/1116x744-73c5487ca9344407ba27d629e20ade7e.jpg;" vertex="1" parent="1">
          <mxGeometry x="39" y="180" width="386" height="257.33" as="geometry" />
        </mxCell>
        <mxCell id="hzXZANXfbae09OoeqcxG-8" style="edgeStyle=orthogonalEdgeStyle;rounded=0;orthogonalLoop=1;jettySize=auto;html=1;exitX=0;exitY=0.5;exitDx=0;exitDy=0;endArrow=none;endFill=0;strokeWidth=3;strokeColor=#009900;" edge="1" parent="1" source="hzXZANXfbae09OoeqcxG-2" target="hzXZANXfbae09OoeqcxG-7">
          <mxGeometry relative="1" as="geometry" />
        </mxCell>
        <mxCell id="hzXZANXfbae09OoeqcxG-2" value="" style="rounded=0;whiteSpace=wrap;html=1;fillColor=none;strokeWidth=5;strokeColor=#009900;" vertex="1" parent="1">
          <mxGeometry x="119" y="200" width="150" height="160" as="geometry" />
        </mxCell>
        <mxCell id="hzXZANXfbae09OoeqcxG-6" style="rounded=0;orthogonalLoop=1;jettySize=auto;html=1;exitX=0.5;exitY=1;exitDx=0;exitDy=0;entryX=0.5;entryY=0;entryDx=0;entryDy=0;endArrow=none;endFill=0;strokeWidth=3;strokeColor=#990000;" edge="1" parent="1" source="hzXZANXfbae09OoeqcxG-3" target="hzXZANXfbae09OoeqcxG-5">
          <mxGeometry relative="1" as="geometry" />
        </mxCell>
        <mxCell id="hzXZANXfbae09OoeqcxG-3" value="" style="rounded=0;whiteSpace=wrap;html=1;fillColor=none;strokeWidth=5;strokeColor=#CC0000;" vertex="1" parent="1">
          <mxGeometry x="289" y="340" width="80" height="90" as="geometry" />
        </mxCell>
        <mxCell id="hzXZANXfbae09OoeqcxG-10" style="edgeStyle=orthogonalEdgeStyle;rounded=0;orthogonalLoop=1;jettySize=auto;html=1;exitX=0.5;exitY=1;exitDx=0;exitDy=0;entryX=0.5;entryY=0;entryDx=0;entryDy=0;endArrow=none;endFill=0;strokeWidth=3;strokeColor=#004C99;" edge="1" parent="1" source="hzXZANXfbae09OoeqcxG-4" target="hzXZANXfbae09OoeqcxG-9">
          <mxGeometry relative="1" as="geometry" />
        </mxCell>
        <mxCell id="hzXZANXfbae09OoeqcxG-4" value="" style="rounded=0;whiteSpace=wrap;html=1;fillColor=none;strokeWidth=5;strokeColor=#004C99;" vertex="1" parent="1">
          <mxGeometry x="112" y="365" width="160" height="40" as="geometry" />
        </mxCell>
        <mxCell id="hzXZANXfbae09OoeqcxG-5" value="&lt;font data-font-src=&quot;https://fonts.googleapis.com/css?family=Inter&quot; face=&quot;Inter&quot;&gt;&lt;b&gt;&lt;font style=&quot;font-size: 15px;&quot; color=&quot;#990000&quot;&gt;Changer de vitesse&lt;/font&gt;&lt;/b&gt;&lt;/font&gt;" style="text;html=1;strokeColor=none;fillColor=none;align=center;verticalAlign=middle;whiteSpace=wrap;rounded=0;" vertex="1" parent="1">
          <mxGeometry x="264" y="480" width="130" height="40" as="geometry" />
        </mxCell>
        <mxCell id="hzXZANXfbae09OoeqcxG-7" value="&lt;font data-font-src=&quot;https://fonts.googleapis.com/css?family=Inter&quot; face=&quot;Inter&quot; color=&quot;#009900&quot;&gt;&lt;b&gt;&lt;font style=&quot;font-size: 15px;&quot;&gt;Tourner&lt;/font&gt;&lt;/b&gt;&lt;/font&gt;" style="text;html=1;strokeColor=none;fillColor=none;align=center;verticalAlign=middle;whiteSpace=wrap;rounded=0;" vertex="1" parent="1">
          <mxGeometry x="9" y="480" width="130" height="40" as="geometry" />
        </mxCell>
        <mxCell id="hzXZANXfbae09OoeqcxG-9" value="&lt;font data-font-src=&quot;https://fonts.googleapis.com/css?family=Inter&quot; face=&quot;Inter&quot; color=&quot;#004c99&quot;&gt;&lt;b&gt;&lt;font style=&quot;font-size: 15px;&quot;&gt;Accélérer Freiner&lt;br&gt;&lt;/font&gt;&lt;/b&gt;&lt;/font&gt;" style="text;html=1;strokeColor=none;fillColor=none;align=center;verticalAlign=middle;whiteSpace=wrap;rounded=0;" vertex="1" parent="1">
          <mxGeometry x="146" y="480" width="92" height="40" as="geometry" />
        </mxCell>
      </root>
    </mxGraphModel>
  </diagram>
  <diagram id="Qwuzj0JcBBorHFcrrNLI" name="Encapsulation-hidden">
    <mxGraphModel dx="1369" dy="766" grid="1" gridSize="10" guides="1" tooltips="1" connect="1" arrows="1" fold="1" page="1" pageScale="1" pageWidth="850" pageHeight="1100" math="0" shadow="0">
      <root>
        <mxCell id="0" />
        <mxCell id="1" parent="0" />
        <mxCell id="Oi2doWsq65IZMkx4b0nJ-1" value="" style="shape=image;verticalLabelPosition=bottom;labelBackgroundColor=default;verticalAlign=top;aspect=fixed;imageAspect=0;image=http://cdn1.scoopauto.com/2017/01/schema-moteur-voiture-electrique.jpg;" vertex="1" parent="1">
          <mxGeometry x="40" y="40" width="480.59" height="320" as="geometry" />
        </mxCell>
        <mxCell id="qlD1Clyi5-9n4n0Xlpwg-3" style="edgeStyle=orthogonalEdgeStyle;rounded=0;orthogonalLoop=1;jettySize=auto;html=1;exitX=0.5;exitY=1;exitDx=0;exitDy=0;entryX=0.5;entryY=0;entryDx=0;entryDy=0;strokeWidth=3;endArrow=none;endFill=0;strokeColor=#009900;" edge="1" parent="1" source="A4nlPO2tD_erH4RfVMhE-1" target="qlD1Clyi5-9n4n0Xlpwg-1">
          <mxGeometry relative="1" as="geometry" />
        </mxCell>
        <mxCell id="A4nlPO2tD_erH4RfVMhE-1" value="" style="rounded=0;whiteSpace=wrap;html=1;fillColor=none;strokeWidth=5;strokeColor=#009900;" vertex="1" parent="1">
          <mxGeometry x="80" y="200" width="121" height="120" as="geometry" />
        </mxCell>
        <mxCell id="qlD1Clyi5-9n4n0Xlpwg-1" value="&lt;font data-font-src=&quot;https://fonts.googleapis.com/css?family=Inter&quot; face=&quot;Inter&quot; color=&quot;#009900&quot;&gt;&lt;b&gt;&lt;font style=&quot;font-size: 15px;&quot;&gt;ABS, Direction assistée&lt;br&gt;&lt;/font&gt;&lt;/b&gt;&lt;/font&gt;" style="text;html=1;strokeColor=none;fillColor=none;align=center;verticalAlign=middle;whiteSpace=wrap;rounded=0;" vertex="1" parent="1">
          <mxGeometry x="75.5" y="370" width="130" height="40" as="geometry" />
        </mxCell>
        <mxCell id="qlD1Clyi5-9n4n0Xlpwg-2" value="&lt;font data-font-src=&quot;https://fonts.googleapis.com/css?family=Inter&quot; face=&quot;Inter&quot; color=&quot;#990000&quot;&gt;&lt;b&gt;&lt;font style=&quot;font-size: 15px;&quot;&gt;Système de transmission&lt;/font&gt;&lt;/b&gt;&lt;/font&gt;&lt;font data-font-src=&quot;https://fonts.googleapis.com/css?family=Inter&quot; face=&quot;Inter&quot; color=&quot;#990000&quot;&gt;&lt;b&gt;&lt;font style=&quot;font-size: 15px;&quot;&gt;, moteur&lt;br&gt;&lt;/font&gt;&lt;/b&gt;&lt;/font&gt;" style="text;html=1;strokeColor=none;fillColor=none;align=center;verticalAlign=middle;whiteSpace=wrap;rounded=0;" vertex="1" parent="1">
          <mxGeometry x="332.5" y="360" width="135" height="60" as="geometry" />
        </mxCell>
        <mxCell id="qlD1Clyi5-9n4n0Xlpwg-5" style="edgeStyle=orthogonalEdgeStyle;rounded=0;orthogonalLoop=1;jettySize=auto;html=1;exitX=0.5;exitY=1;exitDx=0;exitDy=0;entryX=0.5;entryY=0;entryDx=0;entryDy=0;strokeWidth=3;endArrow=none;endFill=0;strokeColor=#990000;" edge="1" parent="1" source="qlD1Clyi5-9n4n0Xlpwg-4" target="qlD1Clyi5-9n4n0Xlpwg-2">
          <mxGeometry relative="1" as="geometry" />
        </mxCell>
        <mxCell id="qlD1Clyi5-9n4n0Xlpwg-4" value="" style="rounded=0;whiteSpace=wrap;html=1;fillColor=none;strokeWidth=5;strokeColor=#990000;" vertex="1" parent="1">
          <mxGeometry x="310" y="120" width="180" height="120" as="geometry" />
        </mxCell>
      </root>
    </mxGraphModel>
  </diagram>
</mxfile>
